Coordinates
version=1
nRows=8
nColumns=40
inDegrees=yes

Units are S.I. units (second, meters, Newtons, ...)
Angles are in degrees.

endheader
time	pelvis_tilt	pelvis_list	pelvis_rotation	pelvis_tx	pelvis_ty	pelvis_tz	hip_flexion_r	hip_adduction_r	hip_rotation_r	knee_angle_r	knee_angle_r_beta	ankle_angle_r	subtalar_angle_r	mtp_angle_r	hip_flexion_l	hip_adduction_l	hip_rotation_l	knee_angle_l	knee_angle_l_beta	ankle_angle_l	subtalar_angle_l	mtp_angle_l	lumbar_extension	lumbar_bending	lumbar_rotation	arm_flex_r	arm_add_r	arm_rot_r	elbow_flex_r	pro_sup_r	wrist_flex_r	wrist_dev_r	arm_flex_l	arm_add_l	arm_rot_l	elbow_flex_l	pro_sup_l	wrist_flex_l	wrist_dev_l
      3.71500000	     -4.22273980	     -1.74802123	      1.71018803	      1.00169740	      0.89522734	      0.37315609	     25.56822103	     -9.22113467	     -2.73985146	     71.60053444	     71.60053444	      9.56584362	    -19.46009041	     18.39466732	     21.18112722	      2.23890116	      2.73685167	     40.39477749	     40.39477749	     25.59606515	    -18.80594487	     11.38983601	    -11.14985719	      5.61719825	      2.14017120	      1.67720276	    -15.91371905	      5.07200100	     22.55021339	     47.21713068	      0.00000000	      0.00000000	     18.27035006	    -12.25420056	     12.90959040	     34.19023861	     45.11601877	      0.00000000	      0.00000000
      3.73285714	     -4.14500667	     -1.64167687	      1.04203619	      1.00130944	      0.89440381	      0.37399966	     26.94754536	     -9.35603792	     -2.48635249	     71.60762955	     71.60762955	     10.79740171	    -19.50764258	     18.95089095	     20.74999123	      2.17518484	      2.28195034	     40.53790996	     40.53790996	     26.06995769	    -18.89547084	     11.41047437	    -11.20313939	      5.61396357	      1.99839285	     -0.23333644	    -16.11247303	      4.46647317	     21.86121418	     47.27589085	      0.00000000	      0.00000000	     19.06469629	    -12.49227028	     12.78353387	     35.09970645	     45.15409635	      0.00000000	      0.00000000
      3.75071429	     -4.05015818	     -1.61877845	      0.33494853	      1.00091646	      0.89448244	      0.37547136	     28.14132159	     -9.27428812	     -2.24495717	     70.94111794	     70.94111794	     12.15767454	    -19.52886051	     19.74411014	     20.12136532	      1.96216398	      1.80045503	     40.34066488	     40.34066488	     26.42049485	    -18.95515394	     11.49440915	    -11.30962397	      5.65558100	      2.03079629	     -2.11429710	    -16.19428175	      3.44694711	     21.50571845	     47.35672563	      0.00000000	      0.00000000	     19.82087698	    -12.77568502	     12.51940149	     36.52121354	     45.21368930	      0.00000000	      0.00000000
      3.76857143	     -4.11678955	     -1.65068146	     -0.33786365	      1.00032937	      0.89530439	      0.37743956	     29.29408556	     -9.02718160	     -2.02311560	     69.55744437	     69.55744437	     13.21494663	    -19.52859716	     19.67142704	     19.50802319	      1.65375376	      1.33187691	     39.80305747	     39.80305747	     26.57736967	    -18.94878393	     11.56656364	    -11.20580564	      5.72627981	      1.47495546	     -3.39764440	    -16.14641759	      3.18164664	     21.19564996	     47.37855149	      0.00000000	      0.00000000	     20.51615441	    -13.30235373	     12.31182748	     37.05126294	     45.25138571	      0.00000000	      0.00000000
      3.78642857	     -4.16654697	     -1.70203055	     -1.06969884	      0.99973269	      0.89699689	      0.38001110	     30.22784138	     -8.60660383	     -1.72152490	     67.53461909	     67.53461909	     14.13306197	    -19.48970763	     19.51069938	     18.64490889	      1.25491121	      0.73948987	     38.82293474	     38.82293474	     26.36927491	    -18.92306503	     11.12790276	    -11.32011224	      5.77383043	      1.49281524	     -5.42130403	    -15.82063495	     -1.01385026	     22.85989311	     47.62604864	      0.00000000	      0.00000000	     20.40387636	    -13.91354514	     10.93030091	     41.13416376	     45.47136056	      0.00000000	      0.00000000
      3.80428571	     -4.51179800	     -1.82414686	     -1.72696085	      0.99879346	      0.89898123	      0.38304860	     31.28101291	     -8.01997890	     -1.44237061	     64.94737811	     64.94737811	     14.85438032	    -19.40033801	     19.38182640	     18.09208987	      0.77238456	      0.23668620	     37.77493141	     37.77493141	     26.24290378	    -18.85129721	     11.38913408	    -10.97996537	      5.88988820	      1.14065107	     -6.32235218	    -15.57515008	     -1.12532058	     22.57812301	     47.63556016	      0.00000000	      0.00000000	     21.37458051	    -14.47121252	     10.69939729	     41.57007591	     45.51116760	      0.00000000	      0.00000000
      3.82214286	     -4.50610860	     -1.98103750	     -2.41480883	      0.99826702	      0.90233593	      0.38651497	     31.44521997	     -7.38392855	     -1.21911168	     61.37945002	     61.37945002	     14.17594079	    -19.29531118	     15.23924326	     16.70862377	      0.22278841	     -0.37551100	     35.92863362	     35.92863362	     25.52689837	    -18.76025019	     10.51521577	    -11.18269685	      6.00219497	      1.44565328	     -7.99849684	    -15.01265993	     -4.70782229	     24.04535715	     47.79414357	      0.00000000	      0.00000000	     21.59555274	    -14.66853276	      8.80056964	     45.24368897	     45.77721506	      0.00000000	      0.00000000
      3.84000000	     -4.75815189	     -2.19455549	     -3.01596534	      0.99749700	      0.90558207	      0.39032936	     31.67150563	     -6.64979275	     -1.01014020	     57.38868118	     57.38868118	     13.42768703	    -19.07202604	     11.70603183	     15.63580378	     -0.38726610	     -0.92639336	     34.10965029	     34.10965029	     24.85863087	    -18.60298104	     10.05251051	    -11.05755859	      6.18157059	      1.56936498	     -9.07919502	    -14.36707211	     -7.27105734	     24.79506618	     47.87238503	      0.00000000	      0.00000000	     22.22980846	    -14.89984611	      7.47690008	     47.52052020	     45.96956631	      0.00000000	      0.00000000
